<mxfile host="app.diagrams.net" modified="2024-01-24T14:33:28.663Z" agent="Mozilla/5.0 (Windows NT 10.0; Win64; x64) AppleWebKit/537.36 (KHTML, like Gecko) Chrome/120.0.0.0 Safari/537.36 Edg/120.0.0.0" etag="7eHSaOhOb4xFKNbPE8Bv" version="23.0.0" type="github">
  <diagram name="第 1 页" id="94kz1IC1ErHSHy79Kq-A">
    <mxGraphModel dx="906" dy="665" grid="1" gridSize="10" guides="1" tooltips="1" connect="1" arrows="1" fold="1" page="1" pageScale="1" pageWidth="827" pageHeight="1169" math="0" shadow="0">
      <root>
        <mxCell id="0" />
        <mxCell id="1" parent="0" />
        <mxCell id="upXCv463iTB23-euKYyT-1" value="main" style="text;html=1;align=center;verticalAlign=middle;resizable=0;points=[];autosize=1;strokeColor=none;fillColor=none;" vertex="1" parent="1">
          <mxGeometry x="20" y="230" width="50" height="30" as="geometry" />
        </mxCell>
        <mxCell id="upXCv463iTB23-euKYyT-2" value="global_variables.h" style="text;html=1;align=center;verticalAlign=middle;resizable=0;points=[];autosize=1;strokeColor=none;fillColor=none;" vertex="1" parent="1">
          <mxGeometry x="110" y="148" width="120" height="30" as="geometry" />
        </mxCell>
        <mxCell id="upXCv463iTB23-euKYyT-3" value="rfid_api_full.h" style="text;html=1;align=center;verticalAlign=middle;resizable=0;points=[];autosize=1;strokeColor=none;fillColor=none;" vertex="1" parent="1">
          <mxGeometry x="330" y="148" width="90" height="30" as="geometry" />
        </mxCell>
        <mxCell id="upXCv463iTB23-euKYyT-5" value="" style="endArrow=none;html=1;rounded=0;curved=1;" edge="1" parent="1">
          <mxGeometry width="50" height="50" relative="1" as="geometry">
            <mxPoint x="60" y="228" as="sourcePoint" />
            <mxPoint x="110" y="178" as="targetPoint" />
          </mxGeometry>
        </mxCell>
        <mxCell id="upXCv463iTB23-euKYyT-6" value="HAL_UCODE/inc/ucode_driver.h" style="text;html=1;align=center;verticalAlign=middle;resizable=0;points=[];autosize=1;strokeColor=none;fillColor=none;" vertex="1" parent="1">
          <mxGeometry x="550" y="148" width="200" height="30" as="geometry" />
        </mxCell>
        <mxCell id="upXCv463iTB23-euKYyT-7" value="" style="edgeStyle=none;orthogonalLoop=1;jettySize=auto;html=1;rounded=0;curved=1;" edge="1" parent="1">
          <mxGeometry width="100" relative="1" as="geometry">
            <mxPoint x="220" y="162.5" as="sourcePoint" />
            <mxPoint x="320" y="162.5" as="targetPoint" />
            <Array as="points" />
          </mxGeometry>
        </mxCell>
        <mxCell id="upXCv463iTB23-euKYyT-8" value="" style="edgeStyle=none;orthogonalLoop=1;jettySize=auto;html=1;rounded=0;curved=1;" edge="1" parent="1">
          <mxGeometry width="100" relative="1" as="geometry">
            <mxPoint x="440" y="162.5" as="sourcePoint" />
            <mxPoint x="540" y="162.5" as="targetPoint" />
            <Array as="points" />
          </mxGeometry>
        </mxCell>
        <mxCell id="upXCv463iTB23-euKYyT-9" value="NFC_TEST_DEVICE" style="text;html=1;align=center;verticalAlign=middle;resizable=0;points=[];autosize=1;strokeColor=none;fillColor=none;" vertex="1" parent="1">
          <mxGeometry x="160" y="228" width="140" height="30" as="geometry" />
        </mxCell>
        <mxCell id="upXCv463iTB23-euKYyT-10" value="setup过程中的" style="text;html=1;align=center;verticalAlign=middle;resizable=0;points=[];autosize=1;strokeColor=none;fillColor=none;" vertex="1" parent="1">
          <mxGeometry x="80" y="228" width="100" height="30" as="geometry" />
        </mxCell>
        <mxCell id="upXCv463iTB23-euKYyT-11" value="NTAG" style="text;html=1;align=center;verticalAlign=middle;resizable=0;points=[];autosize=1;strokeColor=none;fillColor=none;" vertex="1" parent="1">
          <mxGeometry x="600" y="295" width="60" height="30" as="geometry" />
        </mxCell>
        <mxCell id="upXCv463iTB23-euKYyT-12" value="&lt;div style=&quot;color: rgb(101, 123, 131); background-color: rgb(253, 246, 227); font-family: Consolas, &amp;quot;Courier New&amp;quot;, monospace; font-size: 16px; line-height: 22px;&quot;&gt;ntag_device_list.h&lt;/div&gt;" style="text;html=1;align=center;verticalAlign=middle;resizable=0;points=[];autosize=1;strokeColor=none;fillColor=none;" vertex="1" parent="1">
          <mxGeometry x="310" y="295" width="180" height="40" as="geometry" />
        </mxCell>
        <mxCell id="upXCv463iTB23-euKYyT-13" value="" style="edgeStyle=none;orthogonalLoop=1;jettySize=auto;html=1;rounded=0;curved=1;" edge="1" parent="1">
          <mxGeometry width="100" relative="1" as="geometry">
            <mxPoint x="500" y="309.5" as="sourcePoint" />
            <mxPoint x="600" y="309.5" as="targetPoint" />
            <Array as="points" />
          </mxGeometry>
        </mxCell>
        <mxCell id="upXCv463iTB23-euKYyT-14" value="&lt;div style=&quot;color: rgb(101, 123, 131); background-color: rgb(253, 246, 227); font-family: Consolas, &amp;quot;Courier New&amp;quot;, monospace; font-weight: normal; font-size: 16px; line-height: 22px;&quot;&gt;&lt;div&gt;&lt;span style=&quot;color: #2aa198;&quot;&gt;ntag_driver.h&lt;/span&gt;&lt;/div&gt;&lt;/div&gt;" style="text;whiteSpace=wrap;html=1;" vertex="1" parent="1">
          <mxGeometry x="160" y="300" width="120" height="30" as="geometry" />
        </mxCell>
      </root>
    </mxGraphModel>
  </diagram>
</mxfile>
